PathFileType	4	(X/Y/Z)	T1_P2_NoVision_NoMovement_2_0-733.trc
DataRate	CameraRate	NumFrames	NumMarkers	Units	OrigDataRate	OrigDataStartFrame	OrigNumFrames
60	60	4	27	m	60	0	733
Frame#	Time	RHip			RKnee			RAnkle			RBigToe			RSmallToe			RHeel			LHip			LKnee			LAnkle			LBigToe			LSmallToe			LHeel			Neck			Head			Nose			RShoulder			RElbow			RWrist			RThumb			RIndex			RPinky			LShoulder			LElbow			LWrist			LThumb			LIndex			LPinky		
		X1	Y1	Z1	X2	Y2	Z2	X3	Y3	Z3	X4	Y4	Z4	X5	Y5	Z5	X6	Y6	Z6	X7	Y7	Z7	X8	Y8	Z8	X9	Y9	Z9	X10	Y10	Z10	X11	Y11	Z11	X12	Y12	Z12	X13	Y13	Z13	X14	Y14	Z14	X15	Y15	Z15	X16	Y16	Z16	X17	Y17	Z17	X18	Y18	Z18	X19	Y19	Z19	X20	Y20	Z20	X21	Y21	Z21	X22	Y22	Z22	X23	Y23	Z23	X24	Y24	Z24	X25	Y25	Z25	X26	Y26	Z26	X27	Y27	Z27
1	0.0166666666666666	459.8569628934687	3605.982672616425	522.1679140835622	856.6892855685566	3660.4551299136774	537.2129265471042	1256.7867472166804	3753.822124811953	621.355985946073	1316.8904524485683	3615.0355890132296	564.1352549186767	1309.1961447010347	3656.3207768276507	517.0653382983253	1287.7710459400332	3737.4891400133297	623.5628744472922	465.0625782425638	3492.2476215331185	720.1330125614579	870.9869618204317	3550.5246522252583	740.0507232167785	1245.5789698034719	3604.762159982183	723.8544310281014	1310.4511517218884	3492.171047688711	669.4735605247901	1270.8474781476127	3441.680531811706	702.9794305062601	1267.8631008532147	3603.024530783595	704.3833008492397	-94.08226262213353	3544.6962640290685	638.3183993964162	-355.0490954935434	3438.5965797464764	599.130434988862	-184.63201608252768	3394.1391986936396	568.3472001612215	-31.33708122714013	3671.0348450483993	525.417240599643	212.02827672716904	3611.816397949779	414.7214420731779	364.03932794377766	3439.8295886959077	486.68314188183103	435.926553587932	3384.9225320247824	558.8573436966267	455.06727063905066	3405.503255886503	584.2670819435191	467.4165065196683	3384.8250594332153	561.4247674461087	-21.080935735064926	3498.777927066746	785.6566368097428	224.48249435659787	3368.987917135637	750.8463596200891	381.4359717926951	3377.9311313125186	594.3048387260926	426.1840083798204	3382.873206474226	491.5136807123369	458.68717647056917	3423.8784393460405	514.0632733239609	489.8006239297965	3403.92782482486	575.2184735651883
2	0.0333333333333333	462.9194943671442	3607.0622769155566	522.7774766578093	860.1185872791184	3661.3239626439336	539.407956757977	1258.2835770228976	3750.2986187791344	619.8447758277609	1317.159292433393	3605.5486503808593	554.5010720412732	1313.6577892081714	3661.2145793608297	518.3068749384314	1286.136577991001	3731.626477651861	625.1830895200803	468.08238592307225	3493.2749190056925	720.8773293596319	874.221655436271	3551.2573199197595	740.8350330271292	1245.0497063856956	3603.733638900677	726.0353075081772	1309.0369712436413	3490.9491774421776	667.8958935483321	1270.7457802626122	3441.5888116415244	703.0227566026548	1271.5833506393778	3607.897360527156	708.979305702963	-93.8962722233289	3544.9407482719234	638.5579112241687	-355.57211523891317	3445.5891410980985	601.2617836349447	-181.92728468906526	3401.0469455590624	569.806132002723	-33.401124400236576	3662.2458727701155	517.9719957993037	211.93589567690373	3611.862818507303	414.7732815044077	363.9644393521764	3439.550675149425	486.5989054707926	434.2680237834467	3375.2083001998617	549.8835479980871	452.9449130229494	3404.375323096409	583.3565785510987	469.8137346021435	3382.634451452623	560.3440197787502	-20.369197957921912	3500.528334078759	783.6868720045151	223.46946718512442	3371.5204784970365	753.4706355335065	381.4804546957766	3378.02302183907	594.3030135831805	425.91187847946054	3380.862839866373	493.1534192847226	459.33430406858616	3419.2426898280323	516.0440717804263	486.84014424373186	3397.2585451844834	570.1558259900598
3	0.05	464.6447923879725	3607.680218343456	523.140906827202	862.006330347981	3661.854809926821	540.4539174178203	1259.196341507853	3749.2954559958343	619.3728123947319	1317.8299340962094	3600.7747907063845	549.9070117566007	1315.124739826774	3661.9860348927687	518.4833195616891	1285.371374961135	3728.9008339002226	626.3584246685334	469.73219290209204	3493.8432979681147	721.2973113762537	875.915405311193	3551.5566398092606	741.205706847039	1244.5969467683522	3604.1350850548424	726.9768529262709	1307.6230421809532	3488.7810103095653	665.446660902473	1270.6936170357483	3441.5438106173287	703.0436147456351	1275.404821079478	3611.9287023962584	712.4736631470136	-93.86774699486567	3545.1625159820906	638.7759693459906	-355.86829137527485	3449.261308744407	601.5305490770286	-181.03707382575095	3407.2284488702285	571.4335202096712	-34.90939072894325	3657.140825848724	513.5860332469122	212.01319182298755	3611.78265364288	414.75535444155344	363.92167146633744	3439.369457945651	486.55342502996973	432.43737158124276	3366.0616097006305	541.6908437371753	451.0910902421576	3401.8824176844555	581.2964048297175	471.1949327417377	3381.299048979678	559.6954728335254	-19.260796885177804	3499.7613760352097	782.0603760131979	222.78410991246488	3371.858144033335	753.8593853413095	381.5109869053364	3378.1069458234438	594.2858334574405	425.90196832205874	3380.444113597712	494.6622263723671	460.0985217368769	3418.569975958335	517.8652879070152	484.69160921587996	3391.5136996203328	565.5220344755818
4	0.0666666666666666	464.5690495391989	3607.663771341881	523.1462066784927	861.676482968461	3661.7553384716034	539.8941984518367	1259.7069448658183	3751.770779983801	620.1043618404098	1317.6622725591278	3599.3771729713294	548.7225250105066	1314.4935098718092	3661.5215496848396	518.2768100326026	1285.4811622223604	3730.7717688214516	627.141477013558	469.6129516562115	3493.8349762679427	721.30620340125	875.5793579323575	3551.2392971792565	741.0694909171981	1244.3688071057934	3605.620854565644	726.5856385931758	1307.405179414516	3486.4127226612527	663.2568069923693	1270.7123528439429	3441.5665085817773	703.051637165553	1278.821677989169	3614.2593021712228	713.9245200705292	-94.33275943380193	3544.7159476034926	638.474872775114	-355.9355039373586	3449.3323273965207	599.3617755548628	-182.25389611078785	3410.3539258660826	573.0066737658748	-35.666300578022536	3656.1324389077945	512.5345728004422	212.53958248724658	3611.2962584088286	414.5284663472547	363.93529032344804	3439.3292882682235	486.57310497259743	431.2798055823976	3358.54976740031	535.0980124027603	450.17390135611	3397.91148654454	577.9220939600248	471.49134784911126	3380.909421980993	559.5231568023634	-18.329183054939726	3495.709391874157	780.1467859625777	222.5908875263583	3371.4436210611775	753.4425467026103	381.51822467869897	3378.1670407366846	594.2336983720276	426.35309811025644	3382.43450674146	496.75883954905674	460.42591052371995	3419.5495648340716	518.8276244362175	483.5734239544233	3388.253252334127	562.7808933096288
